<svg id="Layer_1" data-name="Layer 1" xmlns="http://www.w3.org/2000/svg" viewBox="0 0 364 593"><defs><style>.cls-1{fill:#fff;}</style></defs><title>HangmanWhole</title><circle class="cls-1" cx="277" cy="167" r="64"/><path d="M294,261a69,69,0,1,1,69-69A69.08,69.08,0,0,1,294,261Zm0-128a59,59,0,1,0,59,59A59.07,59.07,0,0,0,294,133Z" transform="translate(-17 -25)"/><path d="M294,25H91a5,5,0,0,0-5,5V553.54L19,605A5,5,0,1,0,25,613l67.74-52,68,55.93a5,5,0,1,0,6.35-7.72L96,550.64V35H289v93a5,5,0,0,0,10,0V30A5,5,0,0,0,294,25Z" transform="translate(-17 -25)"/><path d="M294,430a5,5,0,0,1-5-5V262a5,5,0,0,1,10,0V425A5,5,0,0,1,294,430Z" transform="translate(-17 -25)"/><path d="M230,507a5,5,0,0,1-3.84-8.2l64-77a5,5,0,0,1,7.69,6.39l-64,77A5,5,0,0,1,230,507Z" transform="translate(-17 -25)"/><path d="M345,508a5,5,0,0,1-4.19-2.26l-51-78a5,5,0,0,1,8.37-5.47l51,78A5,5,0,0,1,345,508Z" transform="translate(-17 -25)"/><path d="M294,342a5,5,0,0,1-2-.44l-80-36a5,5,0,1,1,4.1-9.12l80,36A5,5,0,0,1,294,342Z" transform="translate(-17 -25)"/><path d="M294,342a5,5,0,0,1-2-9.58l82-36a5,5,0,1,1,4,9.16l-82,36A5,5,0,0,1,294,342Z" transform="translate(-17 -25)"/></svg>