<?xml version="1.0" encoding="utf-8"?>
<!-- Generator: Adobe Illustrator 21.0.0, SVG Export Plug-In . SVG Version: 6.00 Build 0)  -->
<svg version="1.1" id="Layer_1" xmlns="http://www.w3.org/2000/svg" xmlns:xlink="http://www.w3.org/1999/xlink" x="0px" y="0px"
	 viewBox="0 0 149 149" style="enable-background:new 0 0 149 149;" xml:space="preserve">
<style type="text/css">
	.st0{fill:#FFFFFF;}
	.st1{display:none;}
	.st2{display:inline;}
</style>
<g>
	<circle class="st0" cx="75" cy="74" r="64"/>
	<path d="M75,143c-38,0-69-31-69-69S37,5,75,5s69,31,69,69S113,143,75,143z M75,15c-32.5,0-59,26.5-59,59s26.5,59,59,59
		c32.5,0,59-26.5,59-59S107.5,15,75,15z"/>
</g>
<path class="st1" d="M75-93h-203c-2.8,0-5,2.2-5,5v523.5l-67,51.5c-2.2,1.7-2.6,4.8-0.9,7c1,1.3,2.5,2,4,2c1.1,0,2.1-0.3,3-1
	l67.7-52l68,55.9c0.9,0.8,2.1,1.1,3.2,1.1c1.4,0,2.9-0.6,3.9-1.8c1.8-2.1,1.4-5.3-0.7-7l-71.2-58.5V-83H70v93c0,2.8,2.2,5,5,5
	c2.8,0,5-2.2,5-5v-98C80-90.8,77.8-93,75-93z"/>
<g class="st1">
	<path class="st2" d="M75,312c-2.8,0-5-2.2-5-5V144c0-2.8,2.2-5,5-5c2.8,0,5,2.2,5,5v163C80,309.8,77.8,312,75,312z"/>
</g>
<g class="st1">
	<path class="st2" d="M11,389c-1.1,0-2.3-0.4-3.2-1.2c-2.1-1.8-2.4-4.9-0.6-7l64-77c1.8-2.1,4.9-2.4,7-0.6c2.1,1.8,2.4,4.9,0.6,7
		l-64,77C13.9,388.4,12.4,389,11,389z"/>
</g>
<g class="st1">
	<path class="st2" d="M126,390c-1.6,0-3.2-0.8-4.2-2.3l-51-78c-1.5-2.3-0.9-5.4,1.4-6.9c2.3-1.5,5.4-0.9,6.9,1.4l51,78
		c1.5,2.3,0.9,5.4-1.4,6.9C127.9,389.7,126.9,390,126,390z"/>
</g>
<g class="st1">
	<path class="st2" d="M75,224c-0.7,0-1.4-0.1-2-0.4l-80-36c-2.5-1.1-3.6-4.1-2.5-6.6s4.1-3.6,6.6-2.5l80,36c2.5,1.1,3.6,4.1,2.5,6.6
		C78.7,222.9,76.9,224,75,224z"/>
</g>
<g class="st1">
	<path class="st2" d="M75,224c-1.9,0-3.8-1.1-4.6-3c-1.1-2.5,0-5.5,2.6-6.6l82-36c2.5-1.1,5.5,0,6.6,2.6c1.1,2.5,0,5.5-2.6,6.6
		l-82,36C76.4,223.9,75.7,224,75,224z"/>
</g>
</svg>
