<?xml version="1.0" encoding="utf-8"?>
<!-- Generator: Adobe Illustrator 21.0.0, SVG Export Plug-In . SVG Version: 6.00 Build 0)  -->
<svg version="1.1" id="Layer_1" xmlns="http://www.w3.org/2000/svg" xmlns:xlink="http://www.w3.org/1999/xlink" x="0px" y="0px"
	 viewBox="0 0 93 103" style="enable-background:new 0 0 93 103;" xml:space="preserve">
<style type="text/css">
	.st0{display:none;}
	.st1{display:inline;fill:#FFFFFF;}
	.st2{display:inline;}
</style>
<g class="st0">
	<circle class="st1" cx="79" cy="-218" r="64"/>
	<path class="st2" d="M79-149c-38,0-69-31-69-69s31-69,69-69s69,31,69,69S117-149,79-149z M79-277c-32.5,0-59,26.5-59,59
		s26.5,59,59,59c32.5,0,59-26.5,59-59S111.5-277,79-277z"/>
</g>
<path class="st0" d="M79-385h-203c-2.8,0-5,2.2-5,5v523.5l-67,51.5c-2.2,1.7-2.6,4.8-0.9,7c1,1.3,2.5,2,4,2c1.1,0,2.1-0.3,3-1
	l67.7-52l68,55.9c0.9,0.8,2.1,1.1,3.2,1.1c1.4,0,2.9-0.6,3.9-1.8c1.8-2.1,1.4-5.3-0.7-7l-71.2-58.5V-375H74v93c0,2.8,2.2,5,5,5
	c2.8,0,5-2.2,5-5v-98C84-382.8,81.8-385,79-385z"/>
<g class="st0">
	<path class="st2" d="M79,20c-2.8,0-5-2.2-5-5v-163c0-2.8,2.2-5,5-5c2.8,0,5,2.2,5,5V15C84,17.8,81.8,20,79,20z"/>
</g>
<g>
	<path d="M15,97c-1.1,0-2.3-0.4-3.2-1.2c-2.1-1.8-2.4-4.9-0.6-7l64-77c1.8-2.1,4.9-2.4,7-0.6c2.1,1.8,2.4,4.9,0.6,7l-64,77
		C17.9,96.4,16.4,97,15,97z"/>
</g>
<g class="st0">
	<path class="st2" d="M130,98c-1.6,0-3.2-0.8-4.2-2.3l-51-78c-1.5-2.3-0.9-5.4,1.4-6.9c2.3-1.5,5.4-0.9,6.9,1.4l51,78
		c1.5,2.3,0.9,5.4-1.4,6.9C131.9,97.7,130.9,98,130,98z"/>
</g>
<g class="st0">
	<path class="st2" d="M79-68c-0.7,0-1.4-0.1-2-0.4l-80-36c-2.5-1.1-3.6-4.1-2.5-6.6s4.1-3.6,6.6-2.5l80,36c2.5,1.1,3.6,4.1,2.5,6.6
		C82.7-69.1,80.9-68,79-68z"/>
</g>
<g class="st0">
	<path class="st2" d="M79-68c-1.9,0-3.8-1.1-4.6-3c-1.1-2.5,0-5.5,2.6-6.6l82-36c2.5-1.1,5.5,0,6.6,2.6c1.1,2.5,0,5.5-2.6,6.6
		l-82,36C80.4-68.1,79.7-68,79-68z"/>
</g>
</svg>
