<?xml version="1.0" encoding="utf-8"?>
<!-- Generator: Adobe Illustrator 21.0.0, SVG Export Plug-In . SVG Version: 6.00 Build 0)  -->
<svg version="1.1" id="Layer_1" xmlns="http://www.w3.org/2000/svg" xmlns:xlink="http://www.w3.org/1999/xlink" x="0px" y="0px"
	 viewBox="0 0 301 611" style="enable-background:new 0 0 301 611;" xml:space="preserve">
<style type="text/css">
	.st0{display:none;}
	.st1{display:inline;fill:#FFFFFF;}
	.st2{display:inline;}
</style>
<g class="st0">
	<circle class="st1" cx="287" cy="178" r="64"/>
	<path class="st2" d="M287,247c-38,0-69-31-69-69s31-69,69-69s69,31,69,69S325,247,287,247z M287,119c-32.5,0-59,26.5-59,59
		s26.5,59,59,59c32.5,0,59-26.5,59-59S319.5,119,287,119z"/>
</g>
<path d="M287,11H84c-2.8,0-5,2.2-5,5v523.5L12,591c-2.2,1.7-2.6,4.8-0.9,7c1,1.3,2.5,2,4,2c1.1,0,2.1-0.3,3-1l67.7-52l68,55.9
	c0.9,0.8,2.1,1.1,3.2,1.1c1.4,0,2.9-0.6,3.9-1.8c1.8-2.1,1.4-5.3-0.7-7L89,536.6V21h193v93c0,2.8,2.2,5,5,5c2.8,0,5-2.2,5-5V16
	C292,13.2,289.8,11,287,11z"/>
<g class="st0">
	<path class="st2" d="M287,416c-2.8,0-5-2.2-5-5V248c0-2.8,2.2-5,5-5c2.8,0,5,2.2,5,5v163C292,413.8,289.8,416,287,416z"/>
</g>
<g class="st0">
	<path class="st2" d="M223,493c-1.1,0-2.3-0.4-3.2-1.2c-2.1-1.8-2.4-4.9-0.6-7l64-77c1.8-2.1,4.9-2.4,7-0.6c2.1,1.8,2.4,4.9,0.6,7
		l-64,77C225.9,492.4,224.4,493,223,493z"/>
</g>
<g class="st0">
	<path class="st2" d="M338,494c-1.6,0-3.2-0.8-4.2-2.3l-51-78c-1.5-2.3-0.9-5.4,1.4-6.9c2.3-1.5,5.4-0.9,6.9,1.4l51,78
		c1.5,2.3,0.9,5.4-1.4,6.9C339.9,493.7,338.9,494,338,494z"/>
</g>
<g class="st0">
	<path class="st2" d="M287,328c-0.7,0-1.4-0.1-2-0.4l-80-36c-2.5-1.1-3.6-4.1-2.5-6.6s4.1-3.6,6.6-2.5l80,36
		c2.5,1.1,3.6,4.1,2.5,6.6C290.7,326.9,288.9,328,287,328z"/>
</g>
<g class="st0">
	<path class="st2" d="M287,328c-1.9,0-3.8-1.1-4.6-3c-1.1-2.5,0-5.5,2.6-6.6l82-36c2.5-1.1,5.5,0,6.6,2.6c1.1,2.5,0,5.5-2.6,6.6
		l-82,36C288.4,327.9,287.7,328,287,328z"/>
</g>
</svg>
